<svg width="64" height="64" viewBox="0 0 64 64" fill="none" xmlns="http://www.w3.org/2000/svg">
<g filter="url(#filter0_b_2571_3472)">
<rect width="64" height="64" rx="12" fill="#FFF9D2" fill-opacity="0.12"/>
<rect x="0.5" y="0.5" width="63" height="63" rx="11.5" stroke="url(#paint0_linear_2571_3472)"/>
</g>
<path d="M50.125 33.875C49.2534 32.7089 48.1214 31.7625 46.8193 31.1114C45.5171 30.4604 44.0809 30.1226 42.625 30.125C43.574 30.126 44.5039 29.8568 45.3056 29.3491C46.1074 28.8413 46.748 28.1158 47.1528 27.2575C47.5575 26.3991 47.7096 25.4433 47.5913 24.5017C47.473 23.5601 47.0892 22.6716 46.4847 21.9401C45.8802 21.2085 45.08 20.6641 44.1776 20.3704C43.2752 20.0768 42.3078 20.046 41.3885 20.2817C40.4693 20.5173 39.6361 21.0098 38.9863 21.7014C38.3365 22.3931 37.8969 23.2553 37.719 24.1875M13.875 33.875C14.7466 32.7089 15.8786 31.7625 17.1807 31.1114C18.4829 30.4604 19.9191 30.1226 21.375 30.125C20.426 30.126 19.4965 29.8568 18.6948 29.3491C17.8931 28.8413 17.2524 28.1158 16.8477 27.2575C16.4429 26.3991 16.2908 25.4433 16.4091 24.5017C16.5274 23.5601 16.9112 22.6716 17.5157 21.9401C18.1202 21.2085 18.9204 20.6641 19.8229 20.3704C20.7253 20.0768 21.6926 20.046 22.6119 20.2817C23.5312 20.5173 24.3644 21.0098 25.0142 21.7014C25.664 22.3931 26.1035 23.2553 26.2814 24.1875M22.9998 45.75C23.8229 44.0642 25.103 42.6435 26.6942 41.6497C28.2854 40.6559 30.1237 40.129 31.9998 40.129C33.8758 40.129 35.7141 40.6559 37.3053 41.6497C38.8965 42.6435 40.1766 44.0642 40.9998 45.75M38.25 33.875C38.25 37.3268 35.4518 40.125 32 40.125C28.5482 40.125 25.75 37.3268 25.75 33.875C25.75 30.4232 28.5482 27.625 32 27.625C35.4518 27.625 38.25 30.4232 38.25 33.875Z" stroke="#FFDA00" stroke-width="2" stroke-linecap="round" stroke-linejoin="round"/>
<defs>
<filter id="filter0_b_2571_3472" x="-4" y="-4" width="72" height="72" filterUnits="userSpaceOnUse" color-interpolation-filters="sRGB">
<feFlood flood-opacity="0" result="BackgroundImageFix"/>
<feGaussianBlur in="BackgroundImageFix" stdDeviation="2"/>
<feComposite in2="SourceAlpha" operator="in" result="effect1_backgroundBlur_2571_3472"/>
<feBlend mode="normal" in="SourceGraphic" in2="effect1_backgroundBlur_2571_3472" result="shape"/>
</filter>
<linearGradient id="paint0_linear_2571_3472" x1="98.5" y1="-27" x2="23.5" y2="48" gradientUnits="userSpaceOnUse">
<stop stop-color="#FFDA00"/>
<stop offset="1" stop-color="#FFDA00" stop-opacity="0"/>
</linearGradient>
</defs>
</svg>
