<svg width="64" height="64" viewBox="0 0 64 64" fill="none" xmlns="http://www.w3.org/2000/svg">
<g filter="url(#filter0_b_2571_3468)">
<rect width="64" height="64" rx="12" fill="#FFF9D2" fill-opacity="0.12"/>
<rect x="0.5" y="0.5" width="63" height="63" rx="11.5" stroke="url(#paint0_linear_2571_3468)"/>
</g>
<path d="M45.75 32.9531L49.6094 31.0313C49.7585 30.9569 49.8913 30.8534 49.9998 30.7269C50.1084 30.6005 50.1906 30.4536 50.2415 30.2949C50.2925 30.1362 50.3112 29.9689 50.2965 29.8029C50.2819 29.6369 50.2342 29.4755 50.1562 29.3281L46.3125 21.9688C46.1624 21.6795 45.9041 21.4614 45.5938 21.3619C45.2836 21.2624 44.9465 21.2895 44.6562 21.4375L40.75 23.3906M45.75 32.9531L40.75 23.3906M45.75 32.9531L43.25 35.8906M40.75 23.3906L34.3908 23.3908C34.2285 23.3902 34.0676 23.4216 33.9175 23.4833C33.7673 23.545 33.6308 23.6356 33.5158 23.7501L27.3908 29.8595C27.2657 29.9879 27.1693 30.1414 27.108 30.3098C27.0468 30.4782 27.0219 30.6578 27.0352 30.8365C27.0485 31.0152 27.0996 31.1891 27.1852 31.3466C27.2707 31.5041 27.3887 31.6417 27.5314 31.7501L28.3751 32.3908C29.2416 33.0375 30.2939 33.3869 31.3751 33.3869C32.4564 33.3869 33.5086 33.0375 34.3751 32.3908L36.3751 30.8908L43.25 35.8906M18.2497 32.7969L14.3904 30.8594C14.2418 30.7866 14.1093 30.6846 14.0009 30.5596C13.8925 30.4345 13.8104 30.289 13.7593 30.1316C13.7083 29.9741 13.6895 29.808 13.7039 29.6432C13.7184 29.4783 13.7658 29.3181 13.8435 29.1719L17.6872 21.8125C17.8376 21.5235 18.0949 21.3046 18.4042 21.2025C18.7136 21.1003 19.0506 21.123 19.3435 21.2657L23.2497 23.2188L18.2497 32.7969ZM18.2497 32.7969L26.7969 39.4687C26.9302 39.5772 27.0845 39.657 27.25 39.7031L36.3125 41.9687C36.5222 42.014 36.7398 42.0079 36.9466 41.9507C37.1534 41.8936 37.3433 41.7872 37.5 41.6406L43.25 35.8906M23.344 23.2188L31.3596 20.8751C31.6444 20.7934 31.949 20.8156 32.219 20.9376L37.6252 23.3907M29.5 45.2657L24.7969 44.0782C24.6052 44.0349 24.4278 43.9435 24.2812 43.8126L20.75 40.7501" stroke="#FFDA00" stroke-width="2" stroke-linecap="round" stroke-linejoin="round"/>
<defs>
<filter id="filter0_b_2571_3468" x="-4" y="-4" width="72" height="72" filterUnits="userSpaceOnUse" color-interpolation-filters="sRGB">
<feFlood flood-opacity="0" result="BackgroundImageFix"/>
<feGaussianBlur in="BackgroundImageFix" stdDeviation="2"/>
<feComposite in2="SourceAlpha" operator="in" result="effect1_backgroundBlur_2571_3468"/>
<feBlend mode="normal" in="SourceGraphic" in2="effect1_backgroundBlur_2571_3468" result="shape"/>
</filter>
<linearGradient id="paint0_linear_2571_3468" x1="98.5" y1="-27" x2="23.5" y2="48" gradientUnits="userSpaceOnUse">
<stop stop-color="#FFDA00"/>
<stop offset="1" stop-color="#FFDA00" stop-opacity="0"/>
</linearGradient>
</defs>
</svg>
